<?xml version="1.0" encoding="utf-8"?>
<!-- Generator: Adobe Illustrator 15.1.0, SVG Export Plug-In . SVG Version: 6.00 Build 0)  -->
<!DOCTYPE svg PUBLIC "-//W3C//DTD SVG 1.1//EN" "http://www.w3.org/Graphics/SVG/1.1/DTD/svg11.dtd">
<svg version="1.1" id="Layer_1" xmlns="http://www.w3.org/2000/svg" xmlns:xlink="http://www.w3.org/1999/xlink" x="0px" y="0px"
	 width="182px" height="132px" viewBox="0 0 182 132" enable-background="new 0 0 182 132" xml:space="preserve">
<path fill-rule="evenodd" clip-rule="evenodd" d="M116.371,1C152.059,1,181,30.099,181,65.977c0,35.875-28.941,64.969-64.629,64.969
	c-35.698,0-64.657-29.094-64.657-64.969C51.714,30.099,80.673,1,116.371,1 M21.203,1.218c11.148,0,20.198,9.09,20.198,20.309v89.177
	v1.211h-0.044C40.739,122.558,31.951,131,21.203,131c-10.753,0-19.547-8.442-20.165-19.086H1v-1.211V21.526
	C1,10.308,10.05,1.218,21.203,1.218 M75.661,76.238h6.238c1.102,0,2.1-0.163,2.973-0.48c0.88-0.31,1.606-0.779,2.23-1.4
	c0.613-0.616,1.085-1.391,1.417-2.308c0.324-0.911,0.486-1.962,0.486-3.157c0-1.51-0.292-2.808-0.846-3.877
	c-0.564-1.079-1.378-1.903-2.446-2.477c-1.064-0.577-2.317-0.86-3.814-0.872h-6.238V76.238z M79.442,64.939v8.038h1.79
	c0.95-0.021,1.714-0.163,2.306-0.447c0.586-0.278,1.02-0.72,1.292-1.309c0.282-0.601,0.396-1.374,0.396-2.351
	c0-1.326-0.342-2.306-1.025-2.961s-1.671-0.98-2.968-0.971H79.442z M91.079,76.238h3.77V61.667h-3.77V76.238z M97.438,76.238h3.554
	v-9.079h0.037l5.034,9.079h3.879V61.667h-3.562v8.987h-0.038l-5.035-8.987h-3.868V76.238z M118.341,65.714l-1.649,5.104h3.298
	l-1.605-5.104H118.341z M111.032,76.238h3.885l0.907-2.611h5.049l0.896,2.611h3.934l-5.409-14.571h-3.842L111.032,76.238z
	 M126.832,76.238h3.547v-11.06h0.049l3.033,11.06h2.892l3.037-11.06h0.049v11.06h3.548V61.667h-5.571l-2.49,9.718h-0.026
	l-2.512-9.718h-5.555V76.238z M145.06,68.953c0,0.85,0.103,1.652,0.304,2.41c0.201,0.764,0.503,1.462,0.9,2.083
	c0.39,0.632,0.878,1.184,1.449,1.642c0.574,0.463,1.242,0.823,1.99,1.074c0.749,0.25,1.589,0.382,2.507,0.382
	c0.912,0,1.736-0.132,2.491-0.382c0.753-0.251,1.414-0.611,1.99-1.074c0.586-0.458,1.063-1.01,1.452-1.642
	c0.403-0.621,0.689-1.319,0.902-2.083c0.205-0.758,0.313-1.561,0.313-2.41c0-0.852-0.108-1.652-0.313-2.41
	c-0.213-0.753-0.499-1.451-0.902-2.083c-0.389-0.639-0.866-1.178-1.452-1.642c-0.576-0.464-1.237-0.817-1.99-1.074
	c-0.755-0.246-1.579-0.371-2.491-0.382c-0.918,0.011-1.758,0.136-2.507,0.382c-0.748,0.257-1.416,0.61-1.99,1.074
	c-0.571,0.464-1.06,1.003-1.449,1.642c-0.397,0.632-0.699,1.33-0.9,2.083C145.162,67.301,145.06,68.102,145.06,68.953
	 M148.836,68.953c0,0.545,0.069,1.08,0.18,1.592c0.129,0.514,0.325,0.971,0.59,1.386c0.271,0.403,0.613,0.735,1.048,0.976
	c0.417,0.246,0.943,0.366,1.557,0.371c0.607-0.005,1.118-0.125,1.54-0.371c0.444-0.24,0.782-0.572,1.058-0.976
	c0.256-0.415,0.467-0.872,0.581-1.386c0.121-0.512,0.186-1.047,0.186-1.592c0-0.546-0.064-1.07-0.186-1.582
	c-0.114-0.518-0.325-0.981-0.581-1.395c-0.275-0.41-0.613-0.742-1.058-0.978c-0.422-0.245-0.933-0.364-1.54-0.371
	c-0.613,0.007-1.14,0.126-1.557,0.371c-0.435,0.235-0.776,0.567-1.048,0.978c-0.265,0.413-0.461,0.877-0.59,1.395
	C148.905,67.883,148.836,68.407,148.836,68.953"/>
</svg>
